<?xml version="1.0" encoding="utf-8"?>
<!-- Generator: Adobe Illustrator 19.0.0, SVG Export Plug-In . SVG Version: 6.00 Build 0)  -->
<svg version="1.1" id="Camada_1" xmlns="http://www.w3.org/2000/svg" xmlns:xlink="http://www.w3.org/1999/xlink" x="0px" y="0px"
	 viewBox="0 0 243.2 330" style="enable-background:new 0 0 243.2 330;" xml:space="preserve">
<path id="XMLID_8_" d="M243.2,23.2c0-14.6-4.3-23.2-11.6-23.2c-73.3,0-146.6,0-220,0C4.3,0,0,8.6,0,23.3c0,94.5,0,189,0,283.4
	C0,321.4,4.3,330,11.6,330c36.7,0,73.3,0,110,0c36.7,0,73.3,0,110,0c7.3,0,11.6-8.6,11.6-23.3C243.2,212.2,243.2,117.7,243.2,23.2z
	 M64.7,183.9c-0.1-15.3,4.7-25.8,20-32.4c15.3-6.6,16.8-10.6,16.8-22.4c0-7.1-4.7-4.8-6.7-17.8c-0.9-5.4-5-0.1-5.8-12.4
	c0-4.9,2.3-6.1,2.3-6.1s-1.1-7.3-1.6-12.9c-0.4-4.6,1.6-13.2,8.9-18.6c8.6-6.2,12.3-14.6,28.4-13.9c-7.4,3.9-5.7,7.8-3.4,10.2
	c13.7,3.8,17,16.4,16.5,22.2c-0.4,5.6-1.6,12.9-1.6,12.9s2.2,1.2,2.2,6.1c-0.8,12.3-4.9,7-5.8,12.4c-2,13-6.7,10.7-6.7,17.8
	c0,11.8,4.9,17.4,20.1,23.9c15.3,6.6,31,14.7,31,30.8c0,4.6,0.1,6.1,0.1,6.1H64.6C64.6,190,64.7,188.5,64.7,183.9z M189.1,313.3
	c-2,0.7-4.2,0.8-6.4,0.8c-20.5,0.1-41,0-61.4,0c-20.6,0-41.3,0-61.9,0c-2,0-4-0.1-5.9-0.7c-3.9-1.3-6.1-4.3-5.8-8.3
	c0.3-4.3,2.9-7,7.2-7.7c1.5-0.2,3-0.2,4.5-0.2c41.1,0,82.3,0,123.4,0c1.5,0,3,0,4.5,0.2c4.4,0.6,6.9,3.2,7.4,7.5
	C195,309,193,312,189.1,313.3z M217.1,283.3c-2,0.7-4.2,0.8-6.4,0.8c-20.5,0.1-69,0-89.4,0c-20.6,0-69.3,0-89.9,0
	c-2,0-4-0.1-5.9-0.7c-3.9-1.3-6.1-4.3-5.8-8.3c0.3-4.3,2.9-7,7.2-7.7c1.5-0.2,3-0.2,4.5-0.2c41.1,0,138.3,0,179.4,0
	c1.5,0,3,0,4.5,0.2c4.4,0.6,6.9,3.2,7.4,7.5C223,279,221,282,217.1,283.3z"/>
</svg>
