<?xml version="1.0" encoding="utf-8"?>
<!-- Generator: Adobe Illustrator 19.0.0, SVG Export Plug-In . SVG Version: 6.00 Build 0)  -->
<svg version="1.1" id="Camada_1" xmlns="http://www.w3.org/2000/svg" xmlns:xlink="http://www.w3.org/1999/xlink" x="0px" y="0px"
	 viewBox="0 0 486.3 330" style="enable-background:new 0 0 486.3 330;" xml:space="preserve">
<path id="XMLID_11_" d="M486.3,23.2c0-14.6-8.6-23.2-23.3-23.2C316.4,0,169.8,0,23.2,0C8.6,0,0,8.6,0,23.3c0,94.5,0,189,0,283.4
	C0,321.4,8.6,330,23.3,330c73.3,0,146.6,0,220,0c73.3,0,146.6,0,219.9,0c14.6,0,23.2-8.6,23.2-23.3
	C486.3,212.2,486.3,117.7,486.3,23.2z M296.5,151.4c1.5-0.2,3-0.2,4.5-0.2c41.1,0,82.3,0,123.4,0c1.5,0,3,0,4.5,0.2
	c4.4,0.6,6.9,3.2,7.4,7.5c0.4,4.2-1.6,7.1-5.5,8.5c-2,0.7-4.2,0.8-6.4,0.8c-20.5,0.1-41,0-61.4,0c-20.6,0-41.3,0-61.9,0
	c-2,0-4-0.1-5.9-0.7c-3.9-1.3-6.1-4.3-5.8-8.3C289.5,154.8,292.1,152.1,296.5,151.4z M218,184.6c17,0,140.9,0,157.9,0
	c17,0,33.9,0,50.9,0c4.6,0,7.7,2,9,6.4c1.1,3.8-0.4,7-3.7,9c-1.6,1-3.8,1.4-5.7,1.4c-34.9,0.1-174.9,0.1-207.8,0
	c-5.7,0-10.7-3.7-10.6-8.6C208.2,188,212.2,184.6,218,184.6z M436.2,226.5c-0.2,4.5-3.6,7.9-8.6,7.9c-10.8,0.2-21.6,0.1-32.5,0.1
	c-6.5,0-13,0-19.5,0c-16.9,0-308.5,0-325.4,0c-4.4,0-7.8-1.5-9.5-5.8c-1.8-4.7,1.2-9.8,6.4-10.9c1.8-0.4,3.6-0.3,5.5-0.3
	c32.1,0,339.2,0,371.4,0c1.3,0,2.7,0,4,0.1C433.1,218.2,436.4,221.8,436.2,226.5z M40.2,169.9c-0.1-15.3,4.7-25.8,20-32.4
	C75.5,131,77,127,77,115.1c0-7.1-4.7-4.8-6.7-17.8c-0.9-5.4-5-0.1-5.8-12.4c0-4.9,2.3-6.1,2.3-6.1s-1.1-7.3-1.6-12.9
	c-0.4-4.6,1.6-13.2,8.9-18.6c8.6-6.2,12.3-14.6,28.4-13.9c-7.4,3.9-5.7,7.8-3.4,10.2c13.7,3.8,17,16.4,16.5,22.2
	c-0.4,5.6-1.6,12.9-1.6,12.9s2.2,1.2,2.2,6.1c-0.8,12.3-4.9,7-5.8,12.4c-2,13-6.7,10.7-6.7,17.8c0,11.8,4.9,17.4,20.1,23.9
	c15.3,6.6,31,14.7,31,30.8c0,4.6,0.1,6.1,0.1,6.1H40.2C40.2,176,40.3,174.5,40.2,169.9z M426.1,269.4c-21.1,0-42.3,0-63.4,0
	c-21,0-291,0-311.9,0c-6.6,0-10.4-3-10.6-8c-0.2-5.2,4-8.8,10.5-8.8c42.1,0,333.3,0,375.4,0c6.3,0,10.2,3.4,10.2,8.5
	C436.2,266.4,432.6,269.4,426.1,269.4z"/>
</svg>
